<?xml version="1.0" standalone="no"?>
<!DOCTYPE svg PUBLIC "-//W3C//DTD SVG 1.1//EN" "http://www.w3.org/Graphics/SVG/1.1/DTD/svg11.dtd" >
<svg xmlns="http://www.w3.org/2000/svg" xmlns:xlink="http://www.w3.org/1999/xlink" version="1.1">
<metadata>
Created by FontForge 20170731 at Sun Dec 13 05:18:40 2020
 By Aleksey,,,
Copyright (c) 2020 by Sarid Ezra. All rights reserved.
</metadata>
<defs>
<font id="Brolink-Regular" horiz-adv-x="918" >
  <font-face 
    font-family="Brolink"
    font-weight="400"
    font-stretch="normal"
    units-per-em="1000"
    panose-1="0 0 0 0 0 0 0 0 0 0"
    ascent="750"
    descent="-250"
    x-height="700"
    cap-height="700"
    bbox="-54 -200 1236 922"
    underline-thickness="50"
    underline-position="-175"
    unicode-range="U+000D-2212"
  />
<missing-glyph horiz-adv-x="0" 
 />
    <glyph glyph-name=".notdef" horiz-adv-x="0" 
 />
    <glyph glyph-name=".null" horiz-adv-x="0" 
 />
    <glyph glyph-name=".null" horiz-adv-x="0" 
 />
    <glyph glyph-name="uni000D" unicode="&#xd;" horiz-adv-x="0" 
 />
    <glyph glyph-name="space" unicode=" " horiz-adv-x="240" 
 />
    <glyph glyph-name="exclam" unicode="!" horiz-adv-x="246" 
d="M40 700h168l-32 -474h-104zM35 75q0 35 24.5 59t59.5 24q36 0 60 -24t24 -59q0 -36 -24 -60.5t-60 -24.5q-35 0 -59.5 24.5t-24.5 60.5z" />
    <glyph glyph-name="quotedbl" unicode="&#x22;" horiz-adv-x="426" 
d="M75 708h128l-84 -239h-88zM264 708h128l-84 -239h-88z" />
    <glyph glyph-name="numbersign" unicode="#" horiz-adv-x="853" 
d="M427 181h-152l-92 -181h-125l92 181h-115v105h169l57 113h-170v104h223l101 197h124l-100 -197h151l101 197h125l-101 -197h91v-104h-144l-57 -113h144v-105h-198l-92 -181h-124zM480 286l57 113h-151l-57 -113h151z" />
    <glyph glyph-name="dollar" unicode="$" horiz-adv-x="748" 
d="M428 750v-71q79 -8 153 -32.5t125 -61.5l-75 -126q-35 31 -90.5 51.5t-112.5 28.5v-141q48 -9 98 -22t90.5 -36.5t66 -60t25.5 -92.5q0 -51 -22.5 -87.5t-61 -61.5t-89.5 -37.5t-107 -15.5v-47h-82v48q-43 3 -86 11.5t-82 21t-73 29.5t-60 37l77 130q18 -16 43.5 -30
t55 -25.5t61.5 -19t64 -12.5v144q-47 10 -94.5 23.5t-86 37t-62.5 59t-24 89.5q0 52 21.5 89.5t58.5 61.5t85 36t102 14v68h82zM346 542q-44 -3 -72 -18.5t-28 -45.5q0 -26 27.5 -40t72.5 -24v128zM428 124q48 2 80 16t32 43t-32 44.5t-80 26.5v-130z" />
    <glyph glyph-name="percent" unicode="%" horiz-adv-x="870" 
d="M234 429q-40 0 -70 12.5t-50 33.5t-30 47.5t-10 54.5t10 54.5t30 47t50 33t70 12.5t70 -12.5t50.5 -33.5t30.5 -47.5t10 -54.5t-10 -54.5t-30.5 -47t-50.5 -33t-70 -12.5zM813 700l-624 -700h-137l624 700h137zM234 643q-35 0 -52 -20.5t-17 -45.5t17 -45.5t52 -20.5
q36 0 53.5 20.5t17.5 45.5t-17.5 45.5t-53.5 20.5zM642 0q-40 0 -69.5 12.5t-49.5 33.5t-30 47.5t-10 54.5t10 54.5t30 47t49.5 33t69.5 12.5q41 0 71 -12.5t50 -33.5t30 -47.5t10 -54.5q0 -27 -10 -53.5t-30 -47.5t-50 -33.5t-71 -12.5zM642 218q-37 0 -55.5 -22t-18.5 -48
q0 -27 18.5 -49t55.5 -22q39 0 58 22t19 49q0 26 -19 48t-58 22z" />
    <glyph glyph-name="ampersand" unicode="&#x26;" horiz-adv-x="850" 
d="M666 -25q-8 7 -19 17q-9 8 -22 20.5t-29 27.5q-55 -42 -120 -61t-131 -19q-60 0 -115.5 16t-98.5 47t-68.5 76t-25.5 103q0 48 19.5 84.5t51.5 64.5t72.5 49t82.5 39q-21 38 -33 74t-12 68q0 35 17 62t44.5 45t63 27t71.5 9q35 0 69 -8.5t60 -26.5t42 -44.5t16 -62.5
q0 -34 -12 -62t-32.5 -50t-47.5 -40t-57 -33q29 -37 61.5 -74.5t66.5 -74.5q23 52 20 121l141 1q2 -71 -12.5 -128.5t-42.5 -102.5q31 -30 57.5 -55.5t46.5 -44.5q24 -22 43 -39zM388 494q36 18 58 38t22 46q0 27 -16.5 40t-36.5 13t-37 -13.5t-17 -41.5q0 -17 7 -38t20 -44
zM326 340q-26 -12 -49 -25.5t-40 -28.5t-27 -32.5t-10 -39.5q0 -26 12.5 -46t33.5 -34t48.5 -21.5t58.5 -7.5q35 0 70.5 9.5t67.5 29.5q-42 45 -84.5 94.5t-80.5 101.5z" />
    <glyph glyph-name="quotesingle" unicode="'" horiz-adv-x="225" 
d="M200 708l-81 -239h-88l41 239h128z" />
    <glyph glyph-name="parenleft" unicode="(" horiz-adv-x="311" 
d="M184 -40q-37 28 -65 69.5t-46.5 91t-28 105t-9.5 112.5q0 56 9.5 111.5t28 105t46.5 91t65 69.5l92 -36q-28 -25 -49.5 -62.5t-35.5 -82.5t-21.5 -95.5t-7.5 -101.5t7 -101.5t21.5 -95t36 -81.5t49.5 -63z" />
    <glyph glyph-name="parenright" unicode=")" horiz-adv-x="312" 
d="M36 -4q29 26 50 63t35.5 81.5t21.5 95t7 101.5t-7 101.5t-21.5 95.5t-35.5 82.5t-50 62.5l92 36q38 -28 65.5 -69.5t46.5 -91t28 -105t9 -111.5q0 -57 -9 -112.5t-28 -105t-46.5 -91t-65.5 -69.5z" />
    <glyph glyph-name="asterisk" unicode="*" horiz-adv-x="342" 
d="M307 585l-81 -11l54 -58l-68 -52l-42 75l-40 -73l-68 51l51 56l-78 10l24 84l76 -34l-9 67h86l-7 -66l76 34z" />
    <glyph glyph-name="plus" unicode="+" horiz-adv-x="507" 
d="M35 405h158v140h121v-140h158v-109h-158v-152h-121v152h-158v109z" />
    <glyph glyph-name="comma" unicode="," horiz-adv-x="312" 
d="M109 133h163l-155 -225h-110z" />
    <glyph glyph-name="hyphen" unicode="-" horiz-adv-x="570" 
d="M35 405h501v-109h-501v109z" />
    <glyph glyph-name="period" unicode="." horiz-adv-x="244" 
d="M38 75q0 18 6.5 33t18 26t27 17.5t32.5 6.5q36 0 60 -24t24 -59q0 -36 -24 -60.5t-60 -24.5q-35 0 -59.5 24.5t-24.5 60.5z" />
    <glyph glyph-name="slash" unicode="/" horiz-adv-x="641" 
d="M606 700l-449 -700h-119l449 700h119z" />
    <glyph glyph-name="zero" unicode="0" horiz-adv-x="779" 
d="M47 350q0 93 29.5 162.5t77.5 116t110 69.5t126 23t125.5 -23t109.5 -69.5t77.5 -116t29.5 -162.5t-29.5 -162.5t-77.5 -116t-109.5 -69.5t-125.5 -23t-126 23t-110 69.5t-77.5 116t-29.5 162.5zM200 350q0 -52 16.5 -91.5t43 -66t60.5 -39.5t70 -13t70 13t61 39.5
t43.5 66t16.5 91.5q0 53 -16.5 92.5t-43.5 66t-61 39.5t-70 13t-70 -13t-60.5 -39.5t-43 -66t-16.5 -92.5z" />
    <glyph glyph-name="one" unicode="1" horiz-adv-x="429" 
d="M252 711h102v-711h-169v499l-85 -70l-73 88z" />
    <glyph glyph-name="two" unicode="2" horiz-adv-x="610" 
d="M403 508q0 34 -29.5 52t-72.5 18q-24 0 -50.5 -6.5t-52 -19t-48 -32.5t-39.5 -47l-67 139q20 28 47.5 49t60.5 35t69.5 21t73.5 7q50 0 98 -13t85.5 -38.5t60 -64t22.5 -89.5q0 -49 -18.5 -86.5t-48 -68t-66.5 -56.5t-75.5 -51.5t-74 -53.5t-61.5 -62h358v-141h-405v0
h-135q0 67 16 119t41.5 91.5t59 70t68 54.5t67.5 44t58.5 39.5t41.5 41t16 48.5z" />
    <glyph glyph-name="three" unicode="3" horiz-adv-x="671" 
d="M233 330l1 107q52 0 88.5 8t59.5 20.5t33.5 29t10.5 32.5q0 26 -24 45.5t-63 19.5q-55 0 -102.5 -22.5t-84.5 -70.5l-73 96q49 65 116 93.5t134 28.5q64 0 113.5 -16t83.5 -42t51.5 -59.5t17.5 -69.5q0 -39 -22 -76.5t-68 -66.5q64 -34 95 -82t31 -99q0 -42 -20.5 -82.5
t-61 -72t-99.5 -50.5t-137 -19q-80 0 -155 34.5t-123 111.5l66 119q44 -62 102 -87t119 -25q33 0 59.5 7.5t45 20t28 29t9.5 33.5q0 20 -12.5 38.5t-39 33.5t-68 24t-98.5 9h-13z" />
    <glyph glyph-name="four" unicode="4" horiz-adv-x="710" 
d="M37 141v140l425 421l113 -2v-419h97v-140h-97v-141l-169 -1v142h-369zM208 281h198v197z" />
    <glyph glyph-name="five" unicode="5" horiz-adv-x="703" 
d="M80 308l49 392h462v-141h-326l-14 -110q26 5 51.5 7.5t51.5 2.5q74 0 129.5 -20t92 -52.5t55 -74.5t18.5 -86q0 -46 -20 -90.5t-60 -80t-99.5 -57t-139.5 -21.5q-41 0 -81.5 9t-76.5 28t-66 49t-51 71l121 68q8 -20 24 -34t36 -23t43 -13.5t45 -4.5q40 0 70 9.5t50.5 25
t30.5 35.5t10 40q0 19 -9 36.5t-28 31.5t-47.5 22.5t-66.5 8.5q-35 0 -75 -9t-75 -28z" />
    <glyph glyph-name="six" unicode="6" horiz-adv-x="706" 
d="M364 -15q-82 0 -143.5 31t-102.5 81t-61 115t-20 132q0 69 21 135.5t62 118.5t103 84t144 32q60 0 108.5 -14.5t84 -32.5t56 -35t24.5 -22l-73 -98q-3 3 -18.5 14.5t-41.5 23.5t-61.5 21.5t-77.5 9.5q-38 0 -69 -14t-54 -37t-38 -54t-22 -65q31 25 78 41t117 16
q73 0 127 -20t90 -53t54 -75t18 -86q0 -46 -19 -90.5t-57.5 -80t-95.5 -57t-133 -21.5zM380 337q-59 0 -96 -14t-54 -35.5t-15.5 -46.5t19.5 -46.5t51 -35.5t79 -14q36 0 64 9t46.5 23.5t28 32.5t9.5 37q0 17 -8 33.5t-24.5 29t-41.5 20t-58 7.5z" />
    <glyph glyph-name="seven" unicode="7" horiz-adv-x="664" 
d="M629 700v-27l-339 -673h-187l307 559h-375v141h594z" />
    <glyph glyph-name="eight" unicode="8" horiz-adv-x="728" 
d="M97 533q0 41 19 75t54.5 58t84.5 37.5t109 13.5t109 -13.5t84.5 -37.5t54.5 -58t19 -75q0 -49 -26.5 -86.5t-74.5 -60.5q76 -25 119 -73t43 -114q0 -48 -23.5 -87.5t-66.5 -67.5t-103.5 -43.5t-134.5 -15.5t-134.5 15.5t-103 43.5t-66 67.5t-23.5 87.5q0 66 43 114
t119 73q-48 23 -75 60.5t-27 86.5zM364 445q62 0 93 23.5t31 51.5t-30.5 51t-93.5 23t-94 -23t-31 -51t31 -51.5t94 -23.5zM364 126q39 0 69 8.5t49.5 22t29.5 30.5t10 35t-10 35t-29.5 30.5t-49 21.5t-69.5 8t-69.5 -8t-49.5 -21.5t-30 -30.5t-10 -35t10 -35t30 -30.5
t50 -22t69 -8.5z" />
    <glyph glyph-name="nine" unicode="9" horiz-adv-x="727" 
d="M349 714q82 0 143.5 -31t102 -81t61 -114.5t20.5 -132.5q0 -69 -21 -135.5t-62.5 -118.5t-103 -84t-143.5 -32q-60 0 -109 14.5t-84 32.5t-56 35t-25 22l74 98q3 -3 18 -14.5t41 -23.5t61.5 -21.5t77.5 -9.5q38 0 69 14t54 37t38 54t22 65q-30 -25 -77.5 -41t-117.5 -16
q-73 0 -127 20t-90 53t-54 75t-18 86q0 46 19.5 90.5t57.5 80t95.5 57t133.5 21.5zM333 362q56 0 91 14t51.5 35.5t15 46.5t-18.5 46.5t-48.5 35.5t-75.5 14q-36 0 -63.5 -9t-46 -23.5t-28 -32.5t-9.5 -37q0 -17 8 -33.5t24.5 -29t41 -20t58.5 -7.5z" />
    <glyph glyph-name="colon" unicode=":" horiz-adv-x="237" 
d="M35 473q0 35 24.5 59t59.5 24q36 0 60 -24t24 -59q0 -36 -24 -60.5t-60 -24.5q-35 0 -59.5 24.5t-24.5 60.5zM38 75q0 18 6.5 33t18 26t27 17.5t32.5 6.5q36 0 60 -24t24 -59q0 -36 -24 -60.5t-60 -24.5q-35 0 -59.5 24.5t-24.5 60.5z" />
    <glyph glyph-name="semicolon" unicode=";" horiz-adv-x="320" 
d="M77 454q0 36 24.5 60t59.5 24q36 0 60 -24t24 -60q0 -35 -24 -60t-60 -25q-35 0 -59.5 25t-24.5 60zM112 133h163l-156 -225h-109z" />
    <glyph glyph-name="less" unicode="&#x3c;" horiz-adv-x="349" 
d="M314 101l-279 202v82l279 202v-130l-164 -113l164 -112v-131z" />
    <glyph glyph-name="equal" unicode="=" horiz-adv-x="471" 
d="M35 477h401v-110h-401v110zM35 301h401v-110h-401v110z" />
    <glyph glyph-name="greater" unicode="&#x3e;" horiz-adv-x="349" 
d="M314 303l-279 -202v130l164 113l-164 113v130l279 -202v-82z" />
    <glyph glyph-name="question" unicode="?" horiz-adv-x="582" 
d="M378 516q0 35 -22.5 52t-55.5 17q-42 0 -90 -25t-83 -76l-90 104q21 30 51 53.5t65.5 39t74.5 23.5t77 8q45 0 86.5 -11.5t73.5 -35t51 -59.5t19 -85q0 -50 -18.5 -81.5t-46.5 -53.5t-60.5 -37.5t-60.5 -33t-46.5 -41t-18.5 -60.5h-89q0 56 13 92.5t33.5 60.5t44.5 39.5
t44.5 30.5t34 33t13.5 46zM161 75q1 35 25.5 59t59.5 24t59 -24t24 -59q0 -36 -24 -60.5t-59 -24.5t-60 24.5t-25 60.5z" />
    <glyph glyph-name="at" unicode="@" horiz-adv-x="741" 
d="M492 484v-115q0 -22 1 -48.5t7.5 -49t20 -37.5t37.5 -15q35 0 54.5 32.5t19.5 80.5q0 38 -14.5 79t-45 75.5t-79.5 56.5t-118 22q-66 0 -116 -22.5t-83 -59t-49.5 -83t-16.5 -94.5q0 -49 16.5 -95.5t49.5 -83t83 -58.5t116 -22q48 0 91 16.5t75 48.5l44 -58
q-45 -38 -98.5 -57.5t-111.5 -19.5q-85 0 -148.5 28t-106 74.5t-64 105.5t-21.5 120q0 62 21.5 120.5t64 105t106 74.5t148.5 28t147.5 -27.5t103 -71t60.5 -96.5t20 -104q0 -36 -9.5 -68t-28.5 -56.5t-46.5 -38.5t-63.5 -14q-42 0 -67.5 13t-41.5 33q-16 -28 -42.5 -45.5
t-67.5 -17.5q-31 0 -54.5 14t-39 37t-23 53t-7.5 62q0 35 9 68.5t26 60t42.5 43t59.5 16.5q18 0 35 -5t31 -13v8h74zM417 362q-6 29 -24 46.5t-42 17.5q-15 0 -26.5 -10.5t-19 -27t-11.5 -37.5t-4 -42q0 -19 3 -37.5t9.5 -32.5t16 -22.5t21.5 -8.5q20 0 33.5 14.5t22.5 37
t14 49.5t7 53z" />
    <glyph glyph-name="A" unicode="A" 
d="M374 710h171l338 -710h-179l-49 102h-392l-49 -102h-179zM331 243h256l-128 267z" />
    <glyph glyph-name="B" unicode="B" horiz-adv-x="794" 
d="M75 700h387q55 0 96 -17.5t68.5 -46t41 -65t13.5 -74.5q0 -32 -9.5 -62.5t-28.5 -56.5q49 -32 72.5 -79t23.5 -98q0 -38 -13.5 -74.5t-40.5 -64.5t-67 -45t-93 -17h-450v700zM244 419h183q43 0 64.5 24t21.5 53t-21.5 53t-64.5 24h-183v-154zM244 137h246q43 0 64.5 24.5
t21.5 53.5q0 30 -21.5 54.5t-64.5 24.5h-246v-157z" />
    <glyph glyph-name="C" unicode="C" horiz-adv-x="826" 
d="M57 350q0 92 36 162t92.5 117t126.5 70.5t137 23.5q106 0 192 -40.5t143 -113.5l-125 -109q-17 21 -40 39.5t-49.5 32t-55.5 21.5t-58 8q-56 0 -98 -18t-70 -47.5t-42 -67.5t-14 -78q0 -39 14 -77t42 -67.5t70 -47.5t98 -18q37 0 67 8.5t55 22.5t45 32.5t36 39.5
l125 -109q-58 -72 -144.5 -114.5t-191.5 -42.5q-67 0 -137 23.5t-126 70.5t-92 117t-36 162z" />
    <glyph glyph-name="D" unicode="D" horiz-adv-x="888" 
d="M476 700q89 -1 156 -31t111.5 -79.5t67 -112t22.5 -127.5t-22.5 -127.5t-67 -112t-111.5 -79.5t-156 -31h-401v700h401zM244 141h227q47 0 82 18t58.5 47.5t35 67t11.5 76.5t-11.5 77t-35 67.5t-58.5 47.5t-82 18h-227v-419z" />
    <glyph glyph-name="E" unicode="E" horiz-adv-x="753" 
d="M706 141v-141h-631v700h624v-141h-455v-139h388v-140h-388v-139h462z" />
    <glyph glyph-name="F" unicode="F" horiz-adv-x="735" 
d="M699 700v-141h-455v-174h387v-141h-387v-244h-169v700h624z" />
    <glyph glyph-name="G" unicode="G" horiz-adv-x="830" 
d="M779 0h-69l-33 56q-45 -38 -102.5 -58.5t-126.5 -20.5q-67 0 -137 23.5t-126 70.5t-92 117t-36 162t36 162t92.5 117t126.5 70.5t137 23.5q106 0 192 -40.5t143 -113.5l-125 -109q-17 21 -40 39.5t-49.5 32t-55.5 21.5t-58 8q-56 0 -98 -18t-70 -47.5t-42 -67.5t-14 -78
q0 -39 14 -77t42 -67.5t70 -47.5t98 -18q43 0 73 11.5t49.5 31t28.5 45t10 52.5h-164v102h326v-382z" />
    <glyph glyph-name="H" unicode="H" horiz-adv-x="873" 
d="M75 700h169v-279h386v279h168v-700h-168v280h-386v-280h-169v700z" />
    <glyph glyph-name="I" unicode="I" horiz-adv-x="319" 
d="M75 700h169v-700h-169v700z" />
    <glyph glyph-name="J" unicode="J" horiz-adv-x="591" 
d="M357 700h169v-466q0 -70 -25.5 -118.5t-67 -79t-93 -44.5t-103.5 -14q-63 0 -117.5 18t-84.5 48l47 152q29 -25 67 -39t76 -14q26 0 50 7.5t42 24t29 42t11 61.5v422z" />
    <glyph glyph-name="K" unicode="K" horiz-adv-x="842" 
d="M75 700h169v-289l310 289h214l-328 -313l373 -387h-220l-265 281l-84 -81v-200h-169v700z" />
    <glyph glyph-name="L" unicode="L" horiz-adv-x="729" 
d="M692 141v-141h-617v700h169v-559h448z" />
    <glyph glyph-name="M" unicode="M" horiz-adv-x="1029" 
d="M75 700h169l271 -472l271 472h169v-700h-169v416l-240 -416h-63l-239 416v-416h-169v700z" />
    <glyph glyph-name="N" unicode="N" horiz-adv-x="917" 
d="M75 700h169l430 -488v488h168v-700h-168l-430 488v-488h-169v700z" />
    <glyph glyph-name="O" unicode="O" horiz-adv-x="911" 
d="M854 350q0 -94 -36.5 -164t-94 -116.5t-128 -69.5t-139.5 -23t-140 23t-128.5 69.5t-94 116.5t-36.5 164t36.5 164t94 116.5t128.5 69.5t140 23t139.5 -23t128 -69.5t94 -116.5t36.5 -164zM682 350q0 54 -20.5 94t-53.5 66.5t-73 39.5t-79 13t-79.5 -13t-73.5 -39.5
t-53.5 -66.5t-20.5 -94t20.5 -93.5t53.5 -66t73.5 -39.5t79.5 -13t79 13t73 39.5t53.5 66t20.5 93.5z" />
    <glyph glyph-name="P" unicode="P" horiz-adv-x="738" 
d="M75 700h379q57 0 100.5 -19.5t72 -51.5t43 -73t14.5 -84t-14.5 -84t-43 -73t-72 -51.5t-100.5 -19.5h-210v-244h-169v700zM244 385h192q42 0 63 27t21 60q0 16 -5 31.5t-15.5 28t-26.5 20t-37 7.5h-192v-174z" />
    <glyph glyph-name="Q" unicode="Q" horiz-adv-x="911" 
d="M855 350q0 -81 -28 -144.5t-73.5 -109t-103.5 -73.5t-119 -39v-137h-150v137q-61 11 -119.5 39t-104 73.5t-73 109t-27.5 144.5q0 94 36.5 164t94 116.5t128.5 69.5t140 23t139.5 -23t128 -69.5t94.5 -116.5t37 -164zM682 350q0 54 -20.5 94t-53.5 66.5t-73 39.5t-79 13
t-79.5 -13t-73.5 -39.5t-53.5 -66.5t-20.5 -94q0 -41 12.5 -74t33.5 -58t48.5 -42.5t57.5 -26.5v119h149v-119q30 9 57.5 26.5t48.5 42.5t33.5 58t12.5 74z" />
    <glyph glyph-name="R" unicode="R" horiz-adv-x="831" 
d="M75 700h422q58 0 101 -18.5t71.5 -49.5t43 -70.5t14.5 -80.5q0 -32 -9 -63t-26.5 -58.5t-44 -49t-61.5 -33.5l216 -277h-212l-185 263h-161v-263h-169v700zM244 403h212q48 0 72 24.5t24 53.5t-24 53.5t-72 24.5h-212v-156z" />
    <glyph glyph-name="S" unicode="S" horiz-adv-x="824" 
d="M684 480q-24 21 -57.5 38t-71 28.5t-76.5 18t-74 6.5q-56 0 -93 -16.5t-37 -52.5q0 -23 21 -37t56 -23.5t79 -17t90.5 -18t90.5 -25.5t79 -39.5t56 -60.5t21 -88q0 -58 -27.5 -99t-74 -67t-107 -38t-125.5 -12q-53 0 -107 7.5t-104 21.5t-93 33.5t-75 44.5l83 140
q25 -23 62 -41.5t79.5 -31t87 -19.5t84.5 -7q28 0 52 4t42 11.5t28 20t10 28.5q0 24 -21 39t-55.5 25t-78.5 18.5t-90.5 19t-90.5 26t-78.5 40t-55.5 60.5t-21 88q0 58 25 98.5t67 66t97.5 37.5t116.5 12q50 0 101.5 -7t99.5 -20.5t91 -32.5t76 -43z" />
    <glyph glyph-name="T" unicode="T" horiz-adv-x="835" 
d="M808 700v-140h-306v-560h-169v561h-306v139h781z" />
    <glyph glyph-name="U" unicode="U" horiz-adv-x="838" 
d="M65 700h169v-414q0 -38 16 -66.5t42 -47.5t59 -28.5t68 -9.5t68 9.5t59 28.5t42 47.5t16 66.5v414h169v-414q0 -78 -30.5 -136t-80 -97t-113.5 -58.5t-130 -19.5t-130 19.5t-113.5 58.5t-80 97t-30.5 136v414z" />
    <glyph glyph-name="V" unicode="V" 
d="M374 -10l-339 710h179l245 -510l245 510h179l-338 -710h-171z" />
    <glyph glyph-name="W" unicode="W" horiz-adv-x="1226" 
d="M306 -10l-271 710h176l171 -473l176 473h111l176 -473l171 473h176l-271 -710h-135l-173 451l-172 -451h-135z" />
    <glyph glyph-name="X" unicode="X" horiz-adv-x="833" 
d="M590 0l-173 225l-173 -225h-217l286 361l-261 339h200l165 -208l165 208h199l-260 -339l286 -361h-217z" />
    <glyph glyph-name="Y" unicode="Y" horiz-adv-x="847" 
d="M232 700l192 -287l191 287h197l-304 -419v-281h-169v281l-304 419h197z" />
    <glyph glyph-name="Z" unicode="Z" horiz-adv-x="720" 
d="M683 141v-141h-633v141l415 418h-406v141h590v-141l-405 -418h439z" />
    <glyph glyph-name="bracketleft" unicode="[" horiz-adv-x="274" 
d="M36 700h202l-1 -65l-89 -8v-612l89 -8l1 -65h-202v758z" />
    <glyph glyph-name="backslash" unicode="\" horiz-adv-x="640" 
d="M154 700l448 -700h-115l-449 700h116z" />
    <glyph glyph-name="bracketright" unicode="]" horiz-adv-x="275" 
d="M238 -58h-202l1 65l88 8v612l-88 8l-1 65h202v-758z" />
    <glyph glyph-name="asciicircum" unicode="^" horiz-adv-x="439" 
d="M191 700h66l151 -260h-114l-70 139l-70 -139h-114z" />
    <glyph glyph-name="underscore" unicode="_" horiz-adv-x="630" 
d="M35 83h553v-96h-553v96z" />
    <glyph glyph-name="grave" unicode="`" horiz-adv-x="195" 
d="M64 902l117 -119l-30 -33l-137 96z" />
    <glyph glyph-name="a" unicode="a" 
d="M391 710h171l338 -710h-179l-245 510l-245 -510h-179z" />
    <glyph glyph-name="b" unicode="b" horiz-adv-x="794" 
d="M75 0v137h415q43 0 64.5 24.5t21.5 54.5q0 29 -21.5 53.5t-64.5 24.5h-415v125h352q43 0 64.5 24t21.5 53t-21.5 53t-64.5 24h-352v127h387q55 0 96 -17.5t68.5 -46t41 -65t13.5 -74.5q0 -32 -9.5 -62.5t-28.5 -56.5q49 -32 72.5 -79t23.5 -98q0 -38 -13.5 -74.5
t-40.5 -64.5t-67 -45t-93 -17h-450z" />
    <glyph glyph-name="c" unicode="c" horiz-adv-x="826" 
d="M57 350q0 92 36 162t92.5 117t126.5 70.5t137 23.5q106 0 192 -40.5t143 -113.5l-125 -109q-17 21 -40 39.5t-49.5 32t-55.5 21.5t-58 8q-56 0 -98 -18t-70 -47.5t-42 -67.5t-14 -78q0 -39 14 -77t42 -67.5t70 -47.5t98 -18q37 0 67 8.5t55 22.5t45 32.5t36 39.5
l125 -109q-58 -72 -144.5 -114.5t-191.5 -42.5q-67 0 -137 23.5t-126 70.5t-92 117t-36 162zM378 349q0 35 21 56.5t57 21.5q35 0 56 -21.5t21 -56.5t-21 -56t-56 -21q-36 0 -57 21t-21 56z" />
    <glyph glyph-name="d" unicode="d" horiz-adv-x="888" 
d="M476 700q90 -1 157 -31t111.5 -79.5t67 -112t22.5 -127.5t-22.5 -127.5t-67 -112t-111.5 -79.5t-157 -31h-401v140h400q46 1 80 19t57 47.5t34.5 67t11.5 76.5t-11.5 77t-35 67.5t-58.5 47.5t-82 18h-396v140h401z" />
    <glyph glyph-name="e" unicode="e" horiz-adv-x="771" 
d="M700 700v-141h-625v141h625zM700 420v-140h-625v140h625zM700 141v-141h-622v141h622z" />
    <glyph glyph-name="f" unicode="f" horiz-adv-x="751" 
d="M700 700v-141h-625v141h625zM700 385v-141h-625v141h625z" />
    <glyph glyph-name="g" unicode="g" horiz-adv-x="830" 
d="M779 382v-382h-69l-33 56q-45 -38 -102.5 -58.5t-126.5 -20.5q-67 0 -137 23.5t-126 70.5t-92 117t-36 162t36 162t92.5 117t126.5 70.5t137 23.5q106 0 192 -40.5t143 -113.5l-125 -109q-17 21 -40 39.5t-49.5 32t-55.5 21.5t-58 8q-56 0 -98 -18t-70 -47.5t-42 -67.5
t-14 -78q0 -39 14 -77t42 -67.5t70 -47.5t98 -18q43 0 73.5 12t50 32t28.5 45.5t9 53.5v99h162zM378 349q0 35 21 56.5t57 21.5q35 0 56 -21.5t21 -56.5t-21 -56t-56 -21q-36 0 -57 21t-21 56z" />
    <glyph glyph-name="h" unicode="h" horiz-adv-x="873" 
d="M520 421v-141h-276v-280h-169v700h169v-279h276zM630 700h168v-700h-168v700z" />
    <glyph glyph-name="i" unicode="i" horiz-adv-x="319" 
d="M244 700v-141h-169v141h169zM75 450h169v-450h-169v450z" />
    <glyph glyph-name="j" unicode="j" horiz-adv-x="591" 
d="M357 700h169v-466q0 -70 -25.5 -118.5t-67 -79t-93 -44.5t-103.5 -14q-63 0 -117.5 18t-84.5 48l47 152q29 -25 67 -39t76 -14q26 0 50 7.5t42 24t29 42t11 61.5v422z" />
    <glyph glyph-name="k" unicode="k" horiz-adv-x="842" 
d="M337 392l234 308h197l-240 -313l285 -387h-198zM75 700h169v-700h-169v700z" />
    <glyph glyph-name="l" unicode="l" horiz-adv-x="729" 
d="M75 700h169v-700h-169v700zM692 141v-141h-315v141h315z" />
    <glyph glyph-name="m" unicode="m" horiz-adv-x="1029" 
d="M75 700h169l405 -700h-168l-237 415v-415h-169v700zM786 700h169v-700h-169v415l-122 -213l-85 137z" />
    <glyph glyph-name="n" unicode="n" horiz-adv-x="917" 
d="M75 700h169l599 -700l-191 -2l-408 484v-482h-169v700zM674 700h169v-513l-169 189v324z" />
    <glyph glyph-name="o" unicode="o" horiz-adv-x="911" 
d="M855 350q0 -94 -36.5 -164t-94.5 -116.5t-128.5 -69.5t-139.5 -23t-140 23t-128.5 69.5t-94 116.5t-36.5 164t36.5 164t94 116.5t128.5 69.5t140 23t139.5 -23t128.5 -69.5t94.5 -116.5t36.5 -164zM682 350q0 54 -20.5 94t-53.5 66.5t-73 39.5t-79 13t-79.5 -13
t-73.5 -39.5t-53.5 -66.5t-20.5 -94t20.5 -93.5t53.5 -66t73.5 -39.5t79.5 -13t79 13t73 39.5t53.5 66t20.5 93.5zM378 349q0 35 21 56.5t57 21.5q35 0 56 -21.5t21 -56.5t-21 -56t-56 -21q-36 0 -57 21t-21 56z" />
    <glyph glyph-name="p" unicode="p" horiz-adv-x="738" 
d="M75 244v141h361q42 0 63 27t21 60q0 16 -5 31.5t-15.5 28t-26.5 20t-37 7.5h-361v141h379q57 0 100.5 -19.5t72 -51.5t43 -73t14.5 -84t-14.5 -84t-43 -73t-72 -51.5t-100.5 -19.5h-379z" />
    <glyph glyph-name="q" unicode="q" horiz-adv-x="911" 
d="M855 350q0 -81 -28 -144.5t-73.5 -109t-103.5 -73.5t-119 -39v-137h-150v137q-61 11 -119.5 39t-104 73.5t-73 109t-27.5 144.5q0 94 36.5 164t94 116.5t128.5 69.5t140 23t139.5 -23t128.5 -69.5t94.5 -116.5t36.5 -164zM229 350q0 -51 19 -90t49.5 -65t68.5 -40.5
t76 -16.5h8q47 0 89 14.5t74 42t50.5 67t18.5 88.5q0 54 -20.5 94t-53.5 66.5t-73 39.5t-79 13t-79.5 -13t-73.5 -39.5t-53.5 -66.5t-20.5 -94zM378 349q0 35 21 56.5t57 21.5q35 0 56 -21.5t21 -56.5t-21 -56t-56 -21q-36 0 -57 21t-21 56zM456 138h-9h-5h4h1h9z" />
    <glyph glyph-name="r" unicode="r" horiz-adv-x="831" 
d="M75 263v140h393q48 0 72 24.5t24 53.5t-24 53.5t-72 24.5h-393v141h422q58 0 101 -18.5t71.5 -49.5t43 -70.5t14.5 -80.5q0 -32 -9 -63t-26.5 -58.5t-44 -49t-61.5 -33.5l215 -277h-211l-185 263h-330z" />
    <glyph glyph-name="s" unicode="s" horiz-adv-x="824" 
d="M684 480q-24 21 -57.5 38t-71 28.5t-76.5 18t-74 6.5q-56 0 -93 -16.5t-37 -52.5q0 -23 21 -37t56 -23.5t79 -17t90.5 -18t90.5 -25.5t79 -39.5t56 -60.5t21 -88q0 -58 -27.5 -99t-74 -67t-107 -38t-125.5 -12q-53 0 -107 7.5t-104 21.5t-93 33.5t-75 44.5l83 140
q25 -23 62 -41.5t79.5 -31t87 -19.5t84.5 -7q28 0 52 4t42 11.5t28 20t10 28.5q0 24 -21 39t-55.5 25t-78.5 18.5t-90.5 19t-90.5 26t-78.5 40t-55.5 60.5t-21 88q0 58 25 98.5t67 66t97.5 37.5t116.5 12q50 0 101.5 -7t99.5 -20.5t91 -32.5t76 -43z" />
    <glyph glyph-name="t" unicode="t" horiz-adv-x="835" 
d="M808 700v-140h-781v140h781zM333 450h169v-450h-169v450z" />
    <glyph glyph-name="u" unicode="u" horiz-adv-x="838" 
d="M65 700h169v-174q0 -38 16 -66.5t42 -47.5t59 -28.5t68 -9.5t68 9.5t59 28.5t42 47.5t16 66.5v174h169v-174q0 -78 -30.5 -136.5t-80 -97t-113.5 -58t-130 -19.5t-130 19.5t-113.5 58t-80 97t-30.5 136.5v174zM738 141v-141h-638v141h638z" />
    <glyph glyph-name="v" unicode="v" 
d="M628 162l-98 174l174 364h179zM374 -10l-339 710h179l336 -699l-5 -11h-171z" />
    <glyph glyph-name="w" unicode="w" horiz-adv-x="1226" 
d="M1003 215l-89 203l102 282h176zM306 -10l-271 710h176l171 -473l176 473h111l264 -710h-147l-173 451l-172 -451h-135z" />
    <glyph glyph-name="x" unicode="x" horiz-adv-x="833" 
d="M590 0l-538 700h200l165 -208l165 208h199l-260 -339l286 -361h-217zM244 0h-217l212 269l106 -132z" />
    <glyph glyph-name="y" unicode="y" horiz-adv-x="847" 
d="M232 700l276 -413v-287h-169v281l-304 419h197zM615 700h197l-219 -291l-98 116z" />
    <glyph glyph-name="z" unicode="z" horiz-adv-x="720" 
d="M59 560v140h590v-141zM683 141v-141h-633v141l350 309h211l-324 -309h396z" />
    <glyph glyph-name="braceleft" unicode="{" horiz-adv-x="319" 
d="M35 370q29 -1 47.5 4t29 16t14.5 26.5t4 34.5q0 30 -5.5 65.5t-5.5 68.5q0 26 6 48.5t23 40t47.5 27.5t79.5 10l9 -74q-43 0 -57 -22t-14 -57q0 -25 3 -53t3 -57q0 -34 -8.5 -65.5t-36.5 -54.5q28 -23 37 -55t9 -66q0 -29 -3 -56.5t-3 -51.5q0 -18 3 -32.5t10.5 -25
t21 -16.5t35.5 -6l-9 -74q-49 0 -79.5 10t-47.5 27t-23 39.5t-6 47.5q0 35 6 70.5t6 65.5q0 51 -24.5 66t-71.5 15v84z" />
    <glyph glyph-name="bar" unicode="|" horiz-adv-x="172" 
d="M35 700h101v-792h-101v792z" />
    <glyph glyph-name="braceright" unicode="}" horiz-adv-x="325" 
d="M290 286q-29 2 -48 -3.5t-29.5 -16.5t-14.5 -26.5t-4 -34.5q0 -30 6 -65.5t6 -70.5q0 -25 -6 -47.5t-23 -39.5t-47.5 -27t-79.5 -10l-10 74q44 0 57.5 22.5t13.5 57.5q0 24 -3 51.5t-3 56.5q0 35 8.5 66.5t37.5 54.5q-28 23 -37 54.5t-9 65.5q0 29 3 57t3 53
q0 35 -13.5 57t-57.5 22l10 74q49 0 79.5 -10t47.5 -27.5t23 -40t6 -48.5q0 -33 -5.5 -68.5t-5.5 -65.5q0 -51 24 -66t71 -15v-84z" />
    <glyph glyph-name="asciitilde" unicode="~" horiz-adv-x="500" 
d="M35 305q36 70 67.5 95.5t60.5 25.5q20 0 39 -8.5t37 -18.5t35.5 -18.5t35.5 -8.5q17 0 34.5 11.5t35.5 40.5l85 -53q-38 -64 -70.5 -87t-61.5 -23q-21 0 -40 7.5t-36.5 17t-34.5 17t-33 7.5q-17 0 -34 -13t-34 -46z" />
    <glyph glyph-name="exclamdown" unicode="&#xa1;" horiz-adv-x="236" 
d="M202 425q0 -35 -25 -59t-60 -24t-59 24t-24 59q0 36 24 60.5t59 24.5t60 -24.5t25 -60.5zM202 -200h-169l33 473h103z" />
    <glyph glyph-name="cent" unicode="&#xa2;" horiz-adv-x="592" 
d="M375 667v-76q86 -15 181 -95l-95 -85q-42 44 -86 62v-307q24 9 49.5 27.5t49.5 47.5l80 -98q-90 -78 -179 -93v-68l-117 4v68q-57 11 -99.5 37.5t-71 62.5t-42.5 79t-14 87t14 87t42.5 79t71 62.5t99.5 37.5v85zM258 468q-53 -20 -78.5 -61t-25.5 -87t25.5 -87.5
t78.5 -61.5v297z" />
    <glyph glyph-name="sterling" unicode="&#xa3;" horiz-adv-x="615" 
d="M513 582q-39 0 -65.5 -16.5t-44.5 -44.5t-30 -64.5t-23 -77.5h109l1 -108h-141q-14 -42 -34 -79t-51 -64h347v-128h-541v85q51 35 80.5 83.5t49.5 102.5h-134l-1 108h168q17 62 35 120.5t50.5 103.5t86 72.5t140.5 27.5z" />
    <glyph glyph-name="yen" unicode="&#xa5;" horiz-adv-x="847" 
d="M222 346h70l-257 354h197l192 -287l191 287h197l-257 -354h68v-97h-115v-61h115v-97h-115v-91h-169v91h-117v97h117v61h-117v97z" />
    <glyph glyph-name="dieresis" unicode="&#xa8;" horiz-adv-x="240" 
d="M19 809q0 19 12.5 31.5t31.5 12.5q17 0 30 -12.5t13 -31.5q0 -17 -13 -30t-30 -13q-19 0 -31.5 13t-12.5 30zM134 809q0 19 14 31.5t32 12.5q15 0 28 -12.5t13 -31.5q0 -17 -13 -30t-28 -13q-18 0 -32 13t-14 30z" />
    <glyph glyph-name="copyright" unicode="&#xa9;" horiz-adv-x="656" 
d="M31 343q0 62 23.5 116t64 94t95 63.5t115.5 23.5q62 0 115.5 -23.5t94 -64t63.5 -94.5t23 -116q0 -61 -23.5 -115.5t-64 -94.5t-94.5 -63.5t-115 -23.5t-115.5 23.5t-94.5 64t-63.5 95t-23.5 115.5zM76 342q0 -52 20 -98t54.5 -80t80.5 -54t98 -20t98 20t80 54.5t54 80.5
t20 98t-20 98t-54.5 80t-80.5 54t-98 20t-97.5 -20t-80 -54.5t-54.5 -80.5t-20 -98zM457 214q-30 -23 -61.5 -36t-66.5 -13q-39 0 -72.5 15t-59 40.5t-40 59.5t-14.5 72q0 39 15 73t40.5 59.5t59.5 40t72 14.5q35 0 66.5 -13.5t61.5 -36.5l-28 -31q-24 19 -48.5 29t-52.5 10
q-30 0 -56.5 -11.5t-46 -31.5t-31 -46.5t-11.5 -56.5t11.5 -56t31.5 -45.5t46.5 -31t56.5 -11.5q27 0 52 10.5t49 29.5z" />
    <glyph glyph-name="guillemotleft" unicode="&#xab;" horiz-adv-x="460" 
d="M199 376l226 291v-153l-128 -162l128 -163v-152l-226 291v48zM35 374l226 291v-153l-128 -162l128 -162v-153l-226 291v48z" />
    <glyph glyph-name="registered" unicode="&#xae;" horiz-adv-x="342" 
d="M22 587q0 30 11.5 56.5t32 46t47.5 30.5t57 11t56.5 -11.5t46.5 -31t31.5 -45.5t11.5 -56t-11.5 -57t-31 -47.5t-46 -32t-57.5 -11.5t-58 11.5t-47 31.5t-31.5 47t-11.5 58zM47 587q0 -25 10 -47.5t26.5 -39.5t39 -27t47.5 -10q26 0 48 10t39 27.5t26.5 40t9.5 46.5
t-10 46.5t-26.5 39t-39 26.5t-47.5 10t-47.5 -10t-39 -26.5t-26.5 -38.5t-10 -47zM231 504h-30l-51 63h-13v-63h-23v170h52q26 -1 42.5 -15.5t16.5 -37.5q0 -20 -13.5 -34t-34.5 -18zM137 588h20q20 0 33.5 7.5t13.5 25.5q0 19 -13 27t-33 8h-21v-68z" />
    <glyph glyph-name="degree" unicode="&#xb0;" horiz-adv-x="364" 
d="M183 401q-37 0 -64.5 13.5t-46 35.5t-28 50t-9.5 57t9.5 57t28 50t46 35.5t64.5 13.5t64.5 -13.5t46 -35t27.5 -49.5t9 -57t-9 -57.5t-27.5 -50.5t-46 -35.5t-64.5 -13.5zM184 637q-15 0 -27 -7t-19.5 -18t-11.5 -25t-4 -29q0 -30 15.5 -54.5t46.5 -24.5q15 0 26 7
t18.5 18t11 25t3.5 29t-3.5 29t-11 25t-18.5 18t-26 7z" />
    <glyph glyph-name="plusminus" unicode="&#xb1;" horiz-adv-x="511" 
d="M316 611v-151h160v-110h-160v-145h-121v145h-160v110h160v151h121zM37 110h437v-110h-437v110z" />
    <glyph glyph-name="acute" unicode="&#xb4;" horiz-adv-x="195" 
d="M131 909l50 -57l-137 -95l-30 33z" />
    <glyph glyph-name="periodcentered" unicode="&#xb7;" horiz-adv-x="237" 
d="M175 354q0 -25 -16.5 -41t-40.5 -16t-40 16t-16 41q0 23 16 40t40 17t40.5 -17t16.5 -40z" />
    <glyph glyph-name="cedilla" unicode="&#xb8;" horiz-adv-x="180" 
d="M138 13l-26 -58q25 -9 36 -26t11 -37q0 -25 -17.5 -45.5t-48.5 -20.5q-17 0 -32.5 5t-26.5 10q-13 7 -24 16l26 46q9 -14 21 -21t23 -7q22 0 24 19q3 13 -11.5 27t-46.5 15l37 94z" />
    <glyph glyph-name="guillemotright" unicode="&#xbb;" horiz-adv-x="474" 
d="M260 374v-48l-225 -291v153l127 162l-127 163v153zM439 374v-48l-226 -291v153l128 162l-128 162v153z" />
    <glyph glyph-name="questiondown" unicode="&#xbf;" horiz-adv-x="568" 
d="M409 467q0 -35 -25 -59t-60 -24t-59 24t-24 59q0 36 24 60.5t59 24.5t60 -24.5t25 -60.5zM192 26q0 -35 22 -52t56 -17q42 0 90 25.5t83 76.5l90 -105q-21 -30 -51 -53.5t-65.5 -39.5t-74.5 -24t-77 -8q-45 0 -86.5 11.5t-73.5 35.5t-51 60t-19 85q0 50 18.5 81.5
t46.5 53.5t60 37.5t60 33t46.5 41t18.5 60.5h90q1 -56 -12.5 -92.5t-34 -60.5t-44.5 -39.5t-44.5 -30.5t-34 -33t-13.5 -46z" />
    <glyph glyph-name="Agrave" unicode="&#xc0;" 
d="M425 902l117 -119l-29 -33l-137 96zM374 710h171l338 -710h-179l-49 102h-392l-49 -102h-179zM331 243h256l-128 267z" />
    <glyph glyph-name="Aacute" unicode="&#xc1;" 
d="M493 909l49 -57l-137 -95l-29 33zM374 710h171l338 -710h-179l-49 102h-392l-49 -102h-179zM331 243h256l-128 267z" />
    <glyph glyph-name="Acircumflex" unicode="&#xc2;" 
d="M358 768l72 115h58l72 -115h-61l-40 66l-40 -66h-61zM374 710h171l338 -710h-179l-49 102h-392l-49 -102h-179zM331 243h256l-128 267z" />
    <glyph glyph-name="Atilde" unicode="&#xc3;" 
d="M367 781l-26 46q15 14 34 28.5t46 14.5q15 0 25.5 -4.5t19 -9.5t16 -9.5t16.5 -4.5t22 6.5t33 22.5l24 -48q-13 -12 -34.5 -24t-43.5 -12q-17 0 -28.5 4.5t-20 9.5t-15.5 9.5t-15 4.5q-9 0 -21 -7t-32 -27zM374 710h171l338 -710h-179l-49 102h-392l-49 -102h-179z
M331 243h256l-128 267z" />
    <glyph glyph-name="Adieresis" unicode="&#xc4;" 
d="M358 809q0 19 12.5 31.5t31.5 12.5q17 0 30 -12.5t13 -31.5q0 -17 -13 -30t-30 -13q-19 0 -31.5 13t-12.5 30zM474 809q0 19 13.5 31.5t31.5 12.5q15 0 28 -12.5t13 -31.5q0 -17 -13 -30t-28 -13q-18 0 -31.5 13t-13.5 30zM374 710h171l338 -710h-179l-49 102h-392
l-49 -102h-179zM331 243h256l-128 267z" />
    <glyph glyph-name="Aring" unicode="&#xc5;" 
d="M460 743q-23 0 -40.5 7.5t-29 20t-17.5 28.5t-6 33t6 33t17.5 29t29 20.5t40.5 7.5t40 -7.5t28.5 -20.5t17 -29t5.5 -33q0 -16 -5.5 -32t-17 -29t-28.5 -20.5t-40 -7.5zM460 870q-20 0 -29 -11.5t-9 -25.5t9 -26t29 -12q18 0 27 12t9 26t-9 25.5t-27 11.5zM374 710h171
l338 -710h-179l-49 102h-392l-49 -102h-179zM331 243h256l-128 267z" />
    <glyph glyph-name="AE" unicode="&#xc6;" horiz-adv-x="1282" 
d="M569 700h660v-140h-456v-139h389v-141h-389v-139h463v-141h-631v102h-308l-81 -102h-181zM409 243h196v247z" />
    <glyph glyph-name="Ccedilla" unicode="&#xc7;" horiz-adv-x="826" 
d="M57 350q0 92 36 162t92.5 117t126.5 70.5t137 23.5q106 0 192 -40.5t143 -113.5l-125 -109q-16 21 -39 39.5t-50 32t-56 21.5t-58 8q-56 0 -98 -18t-70 -47.5t-42 -67.5t-14 -78q0 -39 14 -77t42 -67.5t70 -47.5t98 -18q37 0 67 8.5t55 22.5t45 32.5t36 39.5l125 -109
q-58 -72 -144 -114t-189 -43l-10 -22q24 -9 35 -26t11 -37q0 -25 -17 -45.5t-49 -20.5q-17 0 -32 5t-26 10q-13 7 -24 16l25 46q9 -14 21 -21t23 -7q22 0 25 19q2 13 -12.5 27t-46.5 15l18 45q-62 9 -122 37t-107.5 74t-76.5 111t-29 147z" />
    <glyph glyph-name="Egrave" unicode="&#xc8;" horiz-adv-x="753" 
d="M343 902l117 -119l-30 -33l-137 96zM706 141v-141h-631v700h624v-140h-455v-139h388v-141h-388v-139h462z" />
    <glyph glyph-name="Eacute" unicode="&#xc9;" horiz-adv-x="753" 
d="M410 909l50 -57l-137 -95l-30 33zM706 141v-141h-631v700h624v-140h-455v-139h388v-141h-388v-139h462z" />
    <glyph glyph-name="Ecircumflex" unicode="&#xca;" horiz-adv-x="753" 
d="M275 768l73 115h57l73 -115h-62l-39 66l-40 -66h-62zM706 141v-141h-631v700h624v-140h-455v-139h388v-141h-388v-139h462z" />
    <glyph glyph-name="Edieresis" unicode="&#xcb;" horiz-adv-x="753" 
d="M276 809q0 19 12.5 31.5t31.5 12.5q17 0 30 -12.5t13 -31.5q0 -17 -13 -30t-30 -13q-19 0 -31.5 13t-12.5 30zM391 809q0 19 14 31.5t32 12.5q15 0 27.5 -12.5t12.5 -31.5q0 -17 -12.5 -30t-27.5 -13q-18 0 -32 13t-14 30zM706 141v-141h-631v700h624v-140h-455v-139h388
v-141h-388v-139h462z" />
    <glyph glyph-name="Igrave" unicode="&#xcc;" horiz-adv-x="319" 
d="M126 902l117 -119l-30 -33l-137 96zM75 700h169v-700h-169v700z" />
    <glyph glyph-name="Iacute" unicode="&#xcd;" horiz-adv-x="319" 
d="M193 909l50 -57l-137 -95l-30 33zM75 700h169v-700h-169v700z" />
    <glyph glyph-name="Icircumflex" unicode="&#xce;" horiz-adv-x="319" 
d="M58 768l73 115h57l73 -115h-62l-39 66l-40 -66h-62zM75 700h169v-700h-169v700z" />
    <glyph glyph-name="Idieresis" unicode="&#xcf;" horiz-adv-x="319" 
d="M59 809q0 19 12.5 31.5t31.5 12.5q17 0 30 -12.5t13 -31.5q0 -17 -13 -30t-30 -13q-19 0 -31.5 13t-12.5 30zM174 809q0 19 14 31.5t32 12.5q15 0 27.5 -12.5t12.5 -31.5q0 -17 -12.5 -30t-27.5 -13q-18 0 -32 13t-14 30zM75 700h169v-700h-169v700z" />
    <glyph glyph-name="Eth" unicode="&#xd0;" horiz-adv-x="888" 
d="M476 700q89 -1 156 -31t111.5 -79.5t67 -112t22.5 -127.5t-22.5 -127.5t-67 -111.5t-111.5 -79.5t-156 -31.5h-401v304h-129v109h129v287h401zM244 141h227q47 0 82 18t58.5 47.5t35 67t11.5 76.5t-11.5 77t-35 67.5t-58.5 47.5t-82 18h-227v-147h203v-109h-203v-163z
" />
    <glyph glyph-name="Ntilde" unicode="&#xd1;" horiz-adv-x="917" 
d="M367 781l-27 46q16 14 35 28.5t46 14.5q15 0 25.5 -4.5t18.5 -9.5t15.5 -9.5t16.5 -4.5q10 0 22.5 6.5t32.5 22.5l25 -48q-13 -12 -35 -24t-43 -12q-17 0 -28.5 4.5t-20 9.5t-15.5 9.5t-15 4.5q-9 0 -21.5 -7t-31.5 -27zM75 700h169l430 -487v487h168v-700h-168l-430 488
v-488h-169v700z" />
    <glyph glyph-name="Ograve" unicode="&#xd2;" horiz-adv-x="911" 
d="M422 902l117 -119l-30 -33l-137 96zM854 350q0 -94 -36.5 -164t-94 -116.5t-128 -69.5t-139.5 -23t-140 23t-128.5 69.5t-94 116.5t-36.5 164t36.5 164t94 116.5t128.5 69.5t140 23t139.5 -23t128 -69.5t94 -116.5t36.5 -164zM682 350q0 54 -20.5 94t-53.5 66.5t-73 39.5
t-79 13t-79.5 -13t-73.5 -39.5t-53.5 -66.5t-20.5 -94t20.5 -93.5t53.5 -66t73.5 -39.5t79.5 -13t79 13t73 39.5t53.5 66t20.5 93.5z" />
    <glyph glyph-name="Oacute" unicode="&#xd3;" horiz-adv-x="911" 
d="M489 909l50 -57l-137 -95l-30 33zM854 350q0 -94 -36.5 -164t-94 -116.5t-128 -69.5t-139.5 -23t-140 23t-128.5 69.5t-94 116.5t-36.5 164t36.5 164t94 116.5t128.5 69.5t140 23t139.5 -23t128 -69.5t94 -116.5t36.5 -164zM682 350q0 54 -20.5 94t-53.5 66.5t-73 39.5
t-79 13t-79.5 -13t-73.5 -39.5t-53.5 -66.5t-20.5 -94t20.5 -93.5t53.5 -66t73.5 -39.5t79.5 -13t79 13t73 39.5t53.5 66t20.5 93.5z" />
    <glyph glyph-name="Ocircumflex" unicode="&#xd4;" horiz-adv-x="911" 
d="M354 768l73 115h58l72 -115h-62l-39 66l-40 -66h-62zM854 350q0 -94 -36.5 -164t-94 -116.5t-128 -69.5t-139.5 -23t-140 23t-128.5 69.5t-94 116.5t-36.5 164t36.5 164t94 116.5t128.5 69.5t140 23t139.5 -23t128 -69.5t94 -116.5t36.5 -164zM682 350q0 54 -20.5 94
t-53.5 66.5t-73 39.5t-79 13t-79.5 -13t-73.5 -39.5t-53.5 -66.5t-20.5 -94t20.5 -93.5t53.5 -66t73.5 -39.5t79.5 -13t79 13t73 39.5t53.5 66t20.5 93.5z" />
    <glyph glyph-name="Otilde" unicode="&#xd5;" horiz-adv-x="911" 
d="M364 781l-27 46q16 14 35 28.5t46 14.5q15 0 25.5 -4.5t18.5 -9.5t15.5 -9.5t16.5 -4.5q10 0 22.5 6.5t32.5 22.5l25 -48q-13 -12 -35 -24t-43 -12q-17 0 -28.5 4.5t-20 9.5t-15.5 9.5t-15 4.5q-9 0 -21.5 -7t-31.5 -27zM854 350q0 -94 -36.5 -164t-94 -116.5t-128 -69.5
t-139.5 -23t-140 23t-128.5 69.5t-94 116.5t-36.5 164t36.5 164t94 116.5t128.5 69.5t140 23t139.5 -23t128 -69.5t94 -116.5t36.5 -164zM682 350q0 54 -20.5 94t-53.5 66.5t-73 39.5t-79 13t-79.5 -13t-73.5 -39.5t-53.5 -66.5t-20.5 -94t20.5 -93.5t53.5 -66t73.5 -39.5
t79.5 -13t79 13t73 39.5t53.5 66t20.5 93.5z" />
    <glyph glyph-name="Odieresis" unicode="&#xd6;" horiz-adv-x="911" 
d="M355 809q0 19 12.5 31.5t31.5 12.5q17 0 30 -12.5t13 -31.5q0 -17 -13 -30t-30 -13q-19 0 -31.5 13t-12.5 30zM470 809q0 19 14 31.5t32 12.5q15 0 27.5 -12.5t12.5 -31.5q0 -17 -12.5 -30t-27.5 -13q-18 0 -32 13t-14 30zM854 350q0 -94 -36.5 -164t-94 -116.5
t-128 -69.5t-139.5 -23t-140 23t-128.5 69.5t-94 116.5t-36.5 164t36.5 164t94 116.5t128.5 69.5t140 23t139.5 -23t128 -69.5t94 -116.5t36.5 -164zM682 350q0 54 -20.5 94t-53.5 66.5t-73 39.5t-79 13t-79.5 -13t-73.5 -39.5t-53.5 -66.5t-20.5 -94t20.5 -93.5t53.5 -66
t73.5 -39.5t79.5 -13t79 13t73 39.5t53.5 66t20.5 93.5z" />
    <glyph glyph-name="multiply" unicode="&#xd7;" horiz-adv-x="470" 
d="M124 531l110 -102l116 106l85 -80l-114 -105l112 -104l-88 -76l-110 101l-115 -105l-85 80l114 104l-112 103z" />
    <glyph glyph-name="Oslash" unicode="&#xd8;" horiz-adv-x="911" 
d="M854 350q0 -94 -36.5 -164t-94 -116.5t-128 -69.5t-139.5 -23q-81 0 -159 30l-5 -7h-118l34 54q-33 23 -60.5 53t-47.5 67t-31.5 81t-11.5 95q0 94 36.5 164t94 116.5t128.5 69.5t140 23q40 0 81 -8t80 -23l5 8h119l-36 -56q65 -46 107 -119.5t42 -174.5zM527 552
q-36 11 -71 11q-39 0 -79.5 -13t-73.5 -39.5t-53.5 -66.5t-20.5 -94q0 -52 19 -90.5t50 -65.5zM682 350q0 51 -18.5 89.5t-48.5 64.5l-228 -357q35 -9 69 -9q39 0 79 13t73 39.5t53.5 66t20.5 93.5z" />
    <glyph glyph-name="Ugrave" unicode="&#xd9;" horiz-adv-x="838" 
d="M385 902l117 -119l-29 -33l-137 96zM65 700h169v-414q0 -38 16 -66.5t42 -47.5t59 -28.5t68 -9.5t68 9.5t59 28.5t42 47.5t16 66.5v414h169v-414q0 -78 -30.5 -136t-80 -97t-113.5 -58.5t-130 -19.5t-130 19.5t-113.5 58.5t-80 97t-30.5 136v414z" />
    <glyph glyph-name="Uacute" unicode="&#xda;" horiz-adv-x="838" 
d="M453 909l49 -57l-137 -95l-29 33zM65 700h169v-414q0 -38 16 -66.5t42 -47.5t59 -28.5t68 -9.5t68 9.5t59 28.5t42 47.5t16 66.5v414h169v-414q0 -78 -30.5 -136t-80 -97t-113.5 -58.5t-130 -19.5t-130 19.5t-113.5 58.5t-80 97t-30.5 136v414z" />
    <glyph glyph-name="Ucircumflex" unicode="&#xdb;" horiz-adv-x="838" 
d="M318 768l72 115h58l72 -115h-61l-40 66l-40 -66h-61zM65 700h169v-414q0 -38 16 -66.5t42 -47.5t59 -28.5t68 -9.5t68 9.5t59 28.5t42 47.5t16 66.5v414h169v-414q0 -78 -30.5 -136t-80 -97t-113.5 -58.5t-130 -19.5t-130 19.5t-113.5 58.5t-80 97t-30.5 136v414z" />
    <glyph glyph-name="Udieresis" unicode="&#xdc;" horiz-adv-x="838" 
d="M318 809q0 19 12.5 31.5t31.5 12.5q17 0 30 -12.5t13 -31.5q0 -17 -13 -30t-30 -13q-19 0 -31.5 13t-12.5 30zM434 809q0 19 13.5 31.5t31.5 12.5q15 0 28 -12.5t13 -31.5q0 -17 -13 -30t-28 -13q-18 0 -31.5 13t-13.5 30zM65 700h169v-414q0 -38 16 -66.5t42 -47.5
t59 -28.5t68 -9.5t68 9.5t59 28.5t42 47.5t16 66.5v414h169v-414q0 -78 -30.5 -136t-80 -97t-113.5 -58.5t-130 -19.5t-130 19.5t-113.5 58.5t-80 97t-30.5 136v414z" />
    <glyph glyph-name="Yacute" unicode="&#xdd;" horiz-adv-x="847" 
d="M457 909l50 -57l-137 -95l-30 33zM232 700l192 -287l191 287h197l-304 -419v-281h-169v281l-304 419h197z" />
    <glyph glyph-name="Thorn" unicode="&#xde;" horiz-adv-x="738" 
d="M75 700h169v-122h210q57 0 100.5 -19.5t72 -51.5t43 -73t14.5 -84t-14.5 -84t-43 -73t-72 -51.5t-100.5 -19.5h-210v-122h-169v700zM244 263h192q42 0 63 27t21 60q0 16 -5 31.5t-15.5 28t-26.5 20t-37 7.5h-192v-174z" />
    <glyph glyph-name="germandbls" unicode="&#xdf;" horiz-adv-x="773" 
d="M69 0v491q0 62 22.5 107t59.5 74t84 43.5t96 14.5q48 0 94 -13.5t82 -39.5t58 -63.5t22 -86.5q0 -36 -13 -58t-28 -37.5t-28 -27.5t-13 -28q0 -12 16.5 -21t41 -19t53.5 -22.5t53.5 -32.5t41 -48t16.5 -69q0 -48 -19 -83t-50.5 -58t-72 -34.5t-82.5 -11.5
q-62 0 -119 23.5t-88 69.5l81 91q14 -16 41.5 -26.5t55.5 -10.5t48.5 12.5t20.5 41.5q0 23 -15 39t-38 28t-49.5 23t-49.5 24t-38 30.5t-15 42.5q0 31 14 50t30.5 35t30.5 32.5t14 41.5q0 21 -7.5 37.5t-20 28.5t-28.5 18t-33 6q-19 0 -37 -7.5t-32 -24t-23 -42.5t-9 -62
v-478h-168z" />
    <glyph glyph-name="agrave" unicode="&#xe0;" 
d="M425 902l117 -119l-29 -33l-137 96zM391 710h171l338 -710h-179l-245 510l-245 -510h-179z" />
    <glyph glyph-name="aacute" unicode="&#xe1;" 
d="M493 909l49 -57l-137 -95l-29 33zM391 710h171l338 -710h-179l-245 510l-245 -510h-179z" />
    <glyph glyph-name="acircumflex" unicode="&#xe2;" 
d="M358 768l72 115h58l72 -115h-61l-40 66l-40 -66h-61zM391 710h171l338 -710h-179l-245 510l-245 -510h-179z" />
    <glyph glyph-name="atilde" unicode="&#xe3;" 
d="M367 781l-26 46q15 14 34 28.5t46 14.5q15 0 25.5 -4.5t19 -9.5t16 -9.5t16.5 -4.5t22 6.5t33 22.5l24 -48q-13 -12 -34.5 -24t-43.5 -12q-17 0 -28.5 4.5t-20 9.5t-15.5 9.5t-15 4.5q-9 0 -21 -7t-32 -27zM391 710h171l338 -710h-179l-245 510l-245 -510h-179z" />
    <glyph glyph-name="adieresis" unicode="&#xe4;" 
d="M358 809q0 19 12.5 31.5t31.5 12.5q17 0 30 -12.5t13 -31.5q0 -17 -13 -30t-30 -13q-19 0 -31.5 13t-12.5 30zM474 809q0 19 13.5 31.5t31.5 12.5q16 0 28.5 -12.5t12.5 -31.5q0 -17 -12.5 -30t-28.5 -13q-18 0 -31.5 13t-13.5 30zM391 710h171l338 -710h-179l-245 510
l-245 -510h-179z" />
    <glyph glyph-name="aring" unicode="&#xe5;" 
d="M460 743q-23 0 -40.5 7.5t-29 20t-17.5 28.5t-6 33t6 33t17.5 29t29 20.5t40.5 7.5t40 -7.5t28.5 -20.5t17 -29t5.5 -33q0 -16 -5.5 -32t-17 -29t-28.5 -20.5t-40 -7.5zM460 870q-20 0 -29 -11.5t-9 -25.5t9 -26t29 -12q18 0 27 12t9 26t-9 25.5t-27 11.5zM391 710h171
l338 -710h-179l-245 510l-245 -510h-179z" />
    <glyph glyph-name="ae" unicode="&#xe6;" horiz-adv-x="1282" 
d="M569 700h660v-140h-456v-139h389v-141h-389v-139h463v-141h-631v490l-389 -490h-181z" />
    <glyph glyph-name="ccedilla" unicode="&#xe7;" horiz-adv-x="826" 
d="M57 350q0 92 36 162t92.5 117t126.5 70.5t137 23.5q106 0 192 -40.5t143 -113.5l-125 -109q-16 21 -39 39.5t-50 32t-56 21.5t-58 8q-56 0 -98 -18t-70 -47.5t-42 -67.5t-14 -78q0 -39 14 -77t42 -67.5t70 -47.5t98 -18q37 0 67 8.5t55 22.5t45 32.5t36 39.5l125 -109
q-58 -72 -144 -114t-189 -43l-10 -22q24 -9 35 -26t11 -37q0 -25 -17 -45.5t-49 -20.5q-17 0 -32 5t-26 10q-13 7 -24 16l25 46q9 -14 21 -21t23 -7q22 0 25 19q2 13 -12.5 27t-46.5 15l18 45q-62 9 -122 37t-107.5 74t-76.5 111t-29 147z" />
    <glyph glyph-name="egrave" unicode="&#xe8;" horiz-adv-x="771" 
d="M352 902l117 -119l-30 -33l-137 96zM700 700v-140h-625v140h625zM700 420v-140h-625v140h625zM700 141v-141h-622v141h622z" />
    <glyph glyph-name="eacute" unicode="&#xe9;" horiz-adv-x="771" 
d="M419 909l50 -57l-137 -95l-30 33zM700 700v-140h-625v140h625zM700 420v-140h-625v140h625zM700 141v-141h-622v141h622z" />
    <glyph glyph-name="ecircumflex" unicode="&#xea;" horiz-adv-x="771" 
d="M284 768l73 115h57l73 -115h-62l-39 66l-40 -66h-62zM700 700v-140h-625v140h625zM700 420v-140h-625v140h625zM700 141v-141h-622v141h622z" />
    <glyph glyph-name="edieresis" unicode="&#xeb;" horiz-adv-x="771" 
d="M285 809q0 19 12.5 31.5t31.5 12.5q17 0 30 -12.5t13 -31.5q0 -17 -13 -30t-30 -13q-19 0 -31.5 13t-12.5 30zM400 809q0 19 14 31.5t32 12.5q15 0 27.5 -12.5t12.5 -31.5q0 -17 -12.5 -30t-27.5 -13q-18 0 -32 13t-14 30zM700 700v-140h-625v140h625zM700 420v-140h-625
v140h625zM700 141v-141h-622v141h622z" />
    <glyph glyph-name="igrave" unicode="&#xec;" horiz-adv-x="319" 
d="M126 902l117 -119l-30 -33l-137 96zM75 700h169v-700h-169v700z" />
    <glyph glyph-name="iacute" unicode="&#xed;" horiz-adv-x="319" 
d="M193 909l50 -57l-137 -95l-30 33zM75 700h169v-700h-169v700z" />
    <glyph glyph-name="icircumflex" unicode="&#xee;" horiz-adv-x="319" 
d="M58 768l73 115h57l73 -115h-62l-39 66l-40 -66h-62zM75 700h169v-700h-169v700z" />
    <glyph glyph-name="idieresis" unicode="&#xef;" horiz-adv-x="319" 
d="M59 809q0 19 12.5 31.5t31.5 12.5q17 0 30 -12.5t13 -31.5q0 -17 -13 -30t-30 -13q-19 0 -31.5 13t-12.5 30zM174 809q0 19 14 31.5t32 12.5q15 0 27.5 -12.5t12.5 -31.5q0 -17 -12.5 -30t-27.5 -13q-18 0 -32 13t-14 30zM75 700h169v-700h-169v700z" />
    <glyph glyph-name="ntilde" unicode="&#xf1;" horiz-adv-x="917" 
d="M367 781l-27 46q16 14 35 28.5t46 14.5q15 0 25.5 -4.5t18.5 -9.5t15.5 -9.5t16.5 -4.5q10 0 22.5 6.5t32.5 22.5l25 -48q-13 -12 -35 -24t-43 -12q-17 0 -28.5 4.5t-20 9.5t-15.5 9.5t-15 4.5q-9 0 -21.5 -7t-31.5 -27zM75 700h169l598 -700l-190 -2l-408 484v-482h-169
v700zM674 700h168v-513l-168 189v324z" />
    <glyph glyph-name="ograve" unicode="&#xf2;" horiz-adv-x="911" 
d="M422 902l117 -119l-30 -33l-137 96zM855 350q0 -94 -36.5 -164t-94.5 -116.5t-128.5 -69.5t-139.5 -23t-140 23t-128.5 69.5t-94 116.5t-36.5 164t36.5 164t94 116.5t128.5 69.5t140 23t139.5 -23t128.5 -69.5t94.5 -116.5t36.5 -164zM682 350q0 54 -20.5 94t-53.5 66.5
t-73 39.5t-79 13t-79.5 -13t-73.5 -39.5t-53.5 -66.5t-20.5 -94t20.5 -93.5t53.5 -66t73.5 -39.5t79.5 -13t79 13t73 39.5t53.5 66t20.5 93.5zM378 349q0 35 21 56.5t57 21.5q35 0 56 -21.5t21 -56.5t-21 -56t-56 -21q-36 0 -57 21t-21 56z" />
    <glyph glyph-name="oacute" unicode="&#xf3;" horiz-adv-x="911" 
d="M489 909l50 -57l-137 -95l-30 33zM855 350q0 -94 -36.5 -164t-94.5 -116.5t-128.5 -69.5t-139.5 -23t-140 23t-128.5 69.5t-94 116.5t-36.5 164t36.5 164t94 116.5t128.5 69.5t140 23t139.5 -23t128.5 -69.5t94.5 -116.5t36.5 -164zM682 350q0 54 -20.5 94t-53.5 66.5
t-73 39.5t-79 13t-79.5 -13t-73.5 -39.5t-53.5 -66.5t-20.5 -94t20.5 -93.5t53.5 -66t73.5 -39.5t79.5 -13t79 13t73 39.5t53.5 66t20.5 93.5zM378 349q0 35 21 56.5t57 21.5q35 0 56 -21.5t21 -56.5t-21 -56t-56 -21q-36 0 -57 21t-21 56z" />
    <glyph glyph-name="ocircumflex" unicode="&#xf4;" horiz-adv-x="911" 
d="M354 768l73 115h58l72 -115h-62l-39 66l-40 -66h-62zM855 350q0 -94 -36.5 -164t-94.5 -116.5t-128.5 -69.5t-139.5 -23t-140 23t-128.5 69.5t-94 116.5t-36.5 164t36.5 164t94 116.5t128.5 69.5t140 23t139.5 -23t128.5 -69.5t94.5 -116.5t36.5 -164zM682 350
q0 54 -20.5 94t-53.5 66.5t-73 39.5t-79 13t-79.5 -13t-73.5 -39.5t-53.5 -66.5t-20.5 -94t20.5 -93.5t53.5 -66t73.5 -39.5t79.5 -13t79 13t73 39.5t53.5 66t20.5 93.5zM378 349q0 35 21 56.5t57 21.5q35 0 56 -21.5t21 -56.5t-21 -56t-56 -21q-36 0 -57 21t-21 56z" />
    <glyph glyph-name="otilde" unicode="&#xf5;" horiz-adv-x="911" 
d="M364 781l-27 46q16 14 35 28.5t46 14.5q15 0 25.5 -4.5t18.5 -9.5t15.5 -9.5t16.5 -4.5q10 0 22.5 6.5t32.5 22.5l25 -48q-13 -12 -35 -24t-43 -12q-17 0 -28.5 4.5t-20 9.5t-15.5 9.5t-15 4.5q-9 0 -21.5 -7t-31.5 -27zM855 350q0 -94 -36.5 -164t-94.5 -116.5
t-128.5 -69.5t-139.5 -23t-140 23t-128.5 69.5t-94 116.5t-36.5 164t36.5 164t94 116.5t128.5 69.5t140 23t139.5 -23t128.5 -69.5t94.5 -116.5t36.5 -164zM682 350q0 54 -20.5 94t-53.5 66.5t-73 39.5t-79 13t-79.5 -13t-73.5 -39.5t-53.5 -66.5t-20.5 -94t20.5 -93.5
t53.5 -66t73.5 -39.5t79.5 -13t79 13t73 39.5t53.5 66t20.5 93.5zM378 349q0 35 21 56.5t57 21.5q35 0 56 -21.5t21 -56.5t-21 -56t-56 -21q-36 0 -57 21t-21 56z" />
    <glyph glyph-name="odieresis" unicode="&#xf6;" horiz-adv-x="911" 
d="M355 809q0 19 12.5 31.5t31.5 12.5q17 0 30 -12.5t13 -31.5q0 -17 -13 -30t-30 -13q-19 0 -31.5 13t-12.5 30zM470 809q0 19 14 31.5t32 12.5q15 0 27.5 -12.5t12.5 -31.5q0 -17 -12.5 -30t-27.5 -13q-18 0 -32 13t-14 30zM855 350q0 -94 -36.5 -164t-94.5 -116.5
t-128.5 -69.5t-139.5 -23t-140 23t-128.5 69.5t-94 116.5t-36.5 164t36.5 164t94 116.5t128.5 69.5t140 23t139.5 -23t128.5 -69.5t94.5 -116.5t36.5 -164zM682 350q0 54 -20.5 94t-53.5 66.5t-73 39.5t-79 13t-79.5 -13t-73.5 -39.5t-53.5 -66.5t-20.5 -94t20.5 -93.5
t53.5 -66t73.5 -39.5t79.5 -13t79 13t73 39.5t53.5 66t20.5 93.5zM378 349q0 35 21 56.5t57 21.5q35 0 56 -21.5t21 -56.5t-21 -56t-56 -21q-36 0 -57 21t-21 56z" />
    <glyph glyph-name="divide" unicode="&#xf7;" horiz-adv-x="472" 
d="M172 511q0 28 19 46.5t46 18.5t45.5 -18.5t18.5 -46.5q0 -27 -18.5 -45.5t-45.5 -18.5t-46 18.5t-19 45.5zM437 353v-69h-402v69h402zM172 106q0 27 19 45.5t46 18.5t45.5 -18.5t18.5 -45.5t-18.5 -46t-45.5 -19t-46 19t-19 46z" />
    <glyph glyph-name="oslash" unicode="&#xf8;" horiz-adv-x="911" 
d="M854 350q0 -94 -36.5 -164t-94 -116.5t-128 -69.5t-139.5 -23q-81 0 -159 30l-5 -7h-118l34 54q-33 23 -60.5 53t-47.5 67t-31.5 81t-11.5 95q0 94 36.5 164t94 116.5t128.5 69.5t140 23q40 0 81 -8t80 -23l5 8h119l-36 -56q65 -46 107 -119.5t42 -174.5zM527 552
q-36 11 -71 11q-39 0 -79.5 -13t-73.5 -39.5t-53.5 -66.5t-20.5 -94q0 -52 19 -90.5t50 -65.5zM682 350q0 51 -18.5 89.5t-48.5 64.5l-228 -357q35 -9 69 -9q39 0 79 13t73 39.5t53.5 66t20.5 93.5z" />
    <glyph glyph-name="ugrave" unicode="&#xf9;" horiz-adv-x="838" 
d="M385 902l117 -119l-29 -33l-137 96zM65 700h169v-174q0 -38 16 -66.5t42 -47.5t59 -28.5t68 -9.5t68 9.5t59 28.5t42 47.5t16 66.5v174h169v-174q0 -78 -30.5 -136.5t-80 -97t-113.5 -58t-130 -19.5t-130 19.5t-113.5 58t-80 97t-30.5 136.5v174zM738 141v-141h-638v141
h638z" />
    <glyph glyph-name="uacute" unicode="&#xfa;" horiz-adv-x="838" 
d="M453 909l49 -57l-137 -95l-29 33zM65 700h169v-174q0 -38 16 -66.5t42 -47.5t59 -28.5t68 -9.5t68 9.5t59 28.5t42 47.5t16 66.5v174h169v-174q0 -78 -30.5 -136.5t-80 -97t-113.5 -58t-130 -19.5t-130 19.5t-113.5 58t-80 97t-30.5 136.5v174zM738 141v-141h-638v141
h638z" />
    <glyph glyph-name="ucircumflex" unicode="&#xfb;" horiz-adv-x="838" 
d="M318 768l72 115h58l72 -115h-61l-40 66l-40 -66h-61zM65 700h169v-174q0 -38 16 -66.5t42 -47.5t59 -28.5t68 -9.5t68 9.5t59 28.5t42 47.5t16 66.5v174h169v-174q0 -78 -30.5 -136.5t-80 -97t-113.5 -58t-130 -19.5t-130 19.5t-113.5 58t-80 97t-30.5 136.5v174z
M738 141v-141h-638v141h638z" />
    <glyph glyph-name="udieresis" unicode="&#xfc;" horiz-adv-x="838" 
d="M318 809q0 19 12.5 31.5t31.5 12.5q17 0 30 -12.5t13 -31.5q0 -17 -13 -30t-30 -13q-19 0 -31.5 13t-12.5 30zM434 809q0 19 13.5 31.5t31.5 12.5q15 0 28 -12.5t13 -31.5q0 -17 -13 -30t-28 -13q-18 0 -31.5 13t-13.5 30zM65 700h169v-174q0 -38 16 -66.5t42 -47.5
t59 -28.5t68 -9.5t68 9.5t59 28.5t42 47.5t16 66.5v174h169v-174q0 -78 -30.5 -136.5t-80 -97t-113.5 -58t-130 -19.5t-130 19.5t-113.5 58t-80 97t-30.5 136.5v174zM738 141v-141h-638v141h638z" />
    <glyph glyph-name="yacute" unicode="&#xfd;" horiz-adv-x="847" 
d="M457 909l50 -57l-137 -95l-30 33zM232 700l276 -413v-287h-169v281l-304 419h197zM615 700h197l-219 -291l-98 116z" />
    <glyph glyph-name="thorn" unicode="&#xfe;" horiz-adv-x="738" 
d="M75 700h169v-122h210q57 0 100.5 -19.5t72 -51.5t43 -73t14.5 -84t-14.5 -84t-43 -73t-72 -51.5t-100.5 -19.5h-210v-122h-169v700zM244 263h192q42 0 63 27t21 60q0 16 -5 31.5t-15.5 28t-26.5 20t-37 7.5h-192v-174z" />
    <glyph glyph-name="ydieresis" unicode="&#xff;" horiz-adv-x="847" 
d="M323 809q0 19 12.5 31.5t31.5 12.5q17 0 30 -12.5t13 -31.5q0 -17 -13 -30t-30 -13q-19 0 -31.5 13t-12.5 30zM438 809q0 19 14 31.5t32 12.5q15 0 27.5 -12.5t12.5 -31.5q0 -17 -12.5 -30t-27.5 -13q-18 0 -32 13t-14 30zM232 700l276 -413v-287h-169v281l-304 419h197z
M615 700h197l-219 -291l-98 116z" />
    <glyph glyph-name="Dcroat" unicode="&#x110;" horiz-adv-x="888" 
d="M476 700q89 -1 156 -31t111.5 -79.5t67 -112t22.5 -127.5t-22.5 -127.5t-67 -111.5t-111.5 -79.5t-156 -31.5h-401v303h-118v109h118v288h401zM244 141h227q47 0 82 18t58.5 47.5t35 67t11.5 76.5t-11.5 77t-35 67.5t-58.5 47.5t-82 18h-227v-148h214v-109h-214v-162z
" />
    <glyph glyph-name="dcroat" unicode="&#x111;" horiz-adv-x="888" 
d="M476 700q89 -1 156 -31t111.5 -79.5t67 -112t22.5 -127.5t-22.5 -127.5t-67 -111.5t-111.5 -79.5t-156 -31.5h-401v303h-118v109h118v288h401zM244 141h227q47 0 82 18t58.5 47.5t35 67t11.5 76.5t-11.5 77t-35 67.5t-58.5 47.5t-82 18h-227v-148h214v-109h-214v-162z
" />
    <glyph glyph-name="dotlessi" unicode="&#x131;" horiz-adv-x="319" 
d="M75 700h169v-700h-169v700z" />
    <glyph glyph-name="Lslash" unicode="&#x141;" horiz-adv-x="729" 
d="M692 141v-141h-617v271l-62 -20l-32 97l94 32v320h169v-265l81 27l32 -98l-113 -37v-186h448z" />
    <glyph glyph-name="lslash" unicode="&#x142;" horiz-adv-x="729" 
d="M692 141v-141h-617v271l-62 -20l-32 97l94 32v320h169v-265l81 27l32 -98l-113 -37v-186h448z" />
    <glyph glyph-name="OE" unicode="&#x152;" horiz-adv-x="1204" 
d="M1157 0h-705q-69 0 -140 19.5t-128.5 61.5t-94 108.5t-36.5 160.5t36.5 160.5t94.5 108.5t128.5 61.5t139.5 19.5h699v-140h-456v-139h388v-141h-388v-139h462v-141zM527 540h-75q-39 0 -79 -9.5t-73 -32t-53.5 -58.5t-20.5 -90t20.5 -90t53.5 -58.5t73 -32t79 -9.5h75
v380z" />
    <glyph glyph-name="oe" unicode="&#x153;" horiz-adv-x="1204" 
d="M1157 0h-705q-69 0 -140 19.5t-128.5 61.5t-94 108.5t-36.5 160.5t36.5 160.5t94.5 108.5t128.5 61.5t139.5 19.5h699v-140h-456v-139h388v-141h-388v-139h462v-141zM527 540h-75q-39 0 -79 -9.5t-73 -32t-53.5 -58.5t-20.5 -90t20.5 -90t53.5 -58.5t73 -32t79 -9.5h75
v380z" />
    <glyph glyph-name="Scaron" unicode="&#x160;" horiz-adv-x="824" 
d="M372 872l40 -66l40 66h61l-72 -115h-58l-72 115h61zM684 480q-24 21 -57.5 38t-71 28.5t-76.5 18t-74 6.5q-56 0 -93 -16.5t-37 -52.5q0 -23 21 -37t56 -23.5t79 -17t90.5 -18t90.5 -25.5t79 -39.5t56 -60.5t21 -88q0 -58 -27.5 -99t-74 -67t-106.5 -38t-126 -12
q-53 0 -107 7.5t-104 21.5t-93 33.5t-75 44.5l83 140q25 -23 62 -41.5t79.5 -31t87 -19.5t84.5 -7q57 0 94.5 15.5t37.5 48.5q0 24 -21 39t-55.5 25t-78.5 18.5t-90.5 19t-90.5 26t-78.5 40t-55.5 60.5t-21 88q0 58 25 98.5t67 66t97.5 37.5t116.5 12q50 0 101.5 -7
t99.5 -20.5t91 -32.5t76 -43z" />
    <glyph glyph-name="scaron" unicode="&#x161;" horiz-adv-x="824" 
d="M372 872l40 -66l40 66h61l-72 -115h-58l-72 115h61zM684 480q-24 21 -57.5 38t-71 28.5t-76.5 18t-74 6.5q-56 0 -93 -16.5t-37 -52.5q0 -23 21 -37t56 -23.5t79 -17t90.5 -18t90.5 -25.5t79 -39.5t56 -60.5t21 -88q0 -58 -27.5 -99t-74 -67t-106.5 -38t-126 -12
q-53 0 -107 7.5t-104 21.5t-93 33.5t-75 44.5l83 140q25 -23 62 -41.5t79.5 -31t87 -19.5t84.5 -7q57 0 94.5 15.5t37.5 48.5q0 24 -21 39t-55.5 25t-78.5 18.5t-90.5 19t-90.5 26t-78.5 40t-55.5 60.5t-21 88q0 58 25 98.5t67 66t97.5 37.5t116.5 12q50 0 101.5 -7
t99.5 -20.5t91 -32.5t76 -43z" />
    <glyph glyph-name="Ydieresis" unicode="&#x178;" horiz-adv-x="847" 
d="M323 809q0 19 12.5 31.5t31.5 12.5q17 0 30 -12.5t13 -31.5q0 -17 -13 -30t-30 -13q-19 0 -31.5 13t-12.5 30zM438 809q0 19 14 31.5t32 12.5q15 0 27.5 -12.5t12.5 -31.5q0 -17 -12.5 -30t-27.5 -13q-18 0 -32 13t-14 30zM232 700l192 -287l191 287h197l-304 -419v-281
h-169v281l-304 419h197z" />
    <glyph glyph-name="Zcaron" unicode="&#x17d;" horiz-adv-x="720" 
d="M259 872h61l40 -66l40 66h61l-72 -115h-58zM683 141v-141h-633v141l415 419h-406v140h590v-140l-405 -419h439z" />
    <glyph glyph-name="zcaron" unicode="&#x17e;" horiz-adv-x="720" 
d="M259 872h61l40 -66l40 66h61l-72 -115h-58zM59 560v140h590v-140h-590zM683 141v-141h-633v141l350 309h211l-324 -309h396z" />
    <glyph glyph-name="circumflex" unicode="&#x2c6;" horiz-adv-x="233" 
d="M15 768l73 115h58l72 -115h-62l-39 66l-40 -66h-62z" />
    <glyph glyph-name="caron" unicode="&#x2c7;" horiz-adv-x="233" 
d="M15 872h62l40 -66l39 66h62l-72 -115h-58z" />
    <glyph glyph-name="ring" unicode="&#x2da;" horiz-adv-x="231" 
d="M117 743q-23 0 -40.5 7.5t-29 20t-17.5 28.5t-6 33t6 33t17.5 29t29 20.5t40.5 7.5t40 -7.5t28.5 -20.5t17 -29t5.5 -33q0 -16 -5.5 -32t-17 -29t-28.5 -20.5t-40 -7.5zM116 870q-19 0 -28 -11.5t-9 -25.5t9 -26t28 -12t28 12t9 26t-9 25.5t-28 11.5z" />
    <glyph glyph-name="tilde" unicode="&#x2dc;" horiz-adv-x="306" 
d="M35 827q15 14 34.5 28.5t46.5 14.5q15 0 25 -4.5t18.5 -9.5t16 -9.5t16.5 -4.5q10 0 22.5 6.5t32.5 22.5l24 -48q-13 -12 -34.5 -24t-42.5 -12q-17 0 -28.5 4.5t-20.5 9.5t-16 9.5t-15 4.5q-9 0 -21 -7t-32 -27z" />
    <glyph glyph-name="endash" unicode="&#x2013;" horiz-adv-x="433" 
d="M35 354h363v-103h-363v103z" />
    <glyph glyph-name="emdash" unicode="&#x2014;" horiz-adv-x="658" 
d="M35 352h588v-108h-588v108z" />
    <glyph glyph-name="quoteleft" unicode="&#x2018;" horiz-adv-x="255" 
d="M161 475h-126l99 225h86z" />
    <glyph glyph-name="quoteright" unicode="&#x2019;" horiz-adv-x="255" 
d="M93 700h127l-99 -225h-86z" />
    <glyph glyph-name="quotesinglbase" unicode="&#x201a;" horiz-adv-x="255" 
d="M93 142h127l-99 -225h-86z" />
    <glyph glyph-name="quotedblleft" unicode="&#x201c;" horiz-adv-x="436" 
d="M161 475h-126l99 225h87zM342 475h-127l99 225h87z" />
    <glyph glyph-name="quotedblright" unicode="&#x201d;" horiz-adv-x="436" 
d="M275 700h126l-98 -225h-88zM95 700h126l-99 -225h-87z" />
    <glyph glyph-name="quotedblbase" unicode="&#x201e;" horiz-adv-x="432" 
d="M93 142h127l-99 -225h-86zM270 142h127l-99 -225h-86z" />
    <glyph glyph-name="dagger" unicode="&#x2020;" horiz-adv-x="428" 
d="M269 700v-171h124v-110h-124v-500h-111v500h-123v110h123v171h111z" />
    <glyph glyph-name="bullet" unicode="&#x2022;" horiz-adv-x="264" 
d="M35 350q0 19 8 36t21 30.5t31 21.5t37 8t36.5 -8t31 -21.5t21.5 -30.5t8 -36t-8 -37t-21.5 -31t-31 -21t-36.5 -8t-37 8t-31 21t-21 31t-8 37z" />
    <glyph glyph-name="guilsinglleft" unicode="&#x2039;" horiz-adv-x="296" 
d="M35 374l226 291v-153l-128 -162l128 -162v-153l-226 291v48z" />
    <glyph glyph-name="guilsinglright" unicode="&#x203a;" horiz-adv-x="296" 
d="M261 374v-48l-226 -291v153l128 162l-128 162v153z" />
    <glyph glyph-name="Euro" unicode="&#x20ac;" horiz-adv-x="731" 
d="M131 470q15 51 44.5 95.5t72 77.5t99.5 52.5t127 19.5q56 0 110 -18.5t99 -52.5l-75 -115q-20 17 -52.5 31t-72.5 14q-69 0 -115.5 -29.5t-72.5 -74.5h140v-89h-168q-4 -28 -1 -59h169v-89h-141q26 -46 73 -76t116 -30q51 0 80.5 15t44.5 29l75 -115q-44 -35 -92 -53
t-117 -18q-71 0 -128 19.5t-99.5 53.5t-72 79t-44.5 96h-113v89h97q-1 7 -1 14v14v15.5t1 15.5h-97v89h114z" />
    <glyph glyph-name="trademark" unicode="&#x2122;" horiz-adv-x="431" 
d="M310 609l51 91h36v-189h-44v88l-29 -52h-29l-29 52v-88h-43v189h36zM139 660v-149h-44v149h-60v40h163v-40h-59z" />
    <glyph glyph-name="minus" unicode="&#x2212;" horiz-adv-x="507" 
d="M35 405h437v-110h-437v110z" />
    </font>
</defs>
</svg>
